<svg width="auto" height="auto" viewBox="0 0 512 512" fill="none" xmlns="http://www.w3.org/2000/svg">
  <g>
    <path d="M104.4 176H64C28.65 176 0 204.7 0 240v32c0 35.3 28.65 64 64 64h40.4c17.6 0 33.6-10.1 41.6-26.3l16-32c11.5-23.1 1.9-51.2-21.3-62.7-6.5-3.2-13.6-5-20.8-5zM48 272v-32c0-8.8 7.2-16 16-16h29.6c6 0 11.5 3.4 14.1 8.8l16 32c3.9 7.8.7 17.3-7.1 21.2-2.2 1.1-4.6 1.7-7.1 1.7H64c-8.8 0-16-7.2-16-16z" fill="#2563EB"/>
    <path d="M192 176h64c8.8 0 16 7.2 16 16s-7.2 16-16 16h-64c-8.8 0-16-7.2-16-16s7.2-16 16-16zm0 64h64c8.8 0 16 7.2 16 16s-7.2 16-16 16h-64c-8.8 0-16-7.2-16-16s7.2-16 16-16zm0 64h64c8.8 0 16 7.2 16 16s-7.2 16-16 16h-64c-8.8 0-16-7.2-16-16s7.2-16 16-16z" fill="#2563EB"/>
  </g>
  <text x="130" y="290" font-family="Segoe UI, sans-serif" font-size="120" fill="#333" font-weight="bold">cabigo</text>
</svg>
